<svg xmlns="http://www.w3.org/2000/svg" viewBox="0 0 256 256"><title>Artboard 2</title><g id="_256x256" data-name="256x256"><g id="Trnsp_seal_blck_cloud" data-name="Trnsp seal blck cloud"><path d="M230.63,145A39.72,39.72,0,0,0,198,82.66c-.52,0-1,0-1.54,0A63.73,63.73,0,0,0,71.33,92.21c-.9,0-1.82-.07-2.72-.07A63.69,63.69,0,0,0,4.9,155.82c0,35.15,28.71,60,63.71,63.65,15.87,1.65,41.27,1.65,67.54,1.65,31.61,0,58.55,0,74.39-1.65,21.83-2.27,40.56-17.78,40.56-39.72A39.66,39.66,0,0,0,230.63,145Zm-73.45,40.42c-10.16,5.08-14.38,7.75-27.9,8.83-11.55,14.3-36.23,18-30.79,11.72,11.79-13.72,9-14.11,1.7-16.65-46.3-16.13-19-51.63-50.34-59.76-8.77-2.27,17-1.71,22.81-2.61s19.16-14.36,13.85-6.69c-10.24,14.81,8,48.72,23.95,9.18,4.45-11,7.1-34.93,13.87-43.45,9.63-13.29,23.15-18.28,38.12-6.51,7.18,5.67,12.13,1.94,11.26,11.49-.45,4.67-4.85,7.52-10.5,8.09-6.63.67-6.89,12.17.47,31.79a48.46,48.46,0,0,1,3.5,17.7c0,4.41-.07,7.7.3,11.43,1.18,11.88,14.71,25.54,15.39,27.65C184.13,191.54,168.49,190.17,157.18,185.43Z"/></g></g></svg>