<svg xmlns="http://www.w3.org/2000/svg" viewBox="0 0 256 256"><defs><style>.cls-1{fill:#fff;}</style></defs><title>Artboard 2</title><g id="_256x256" data-name="256x256"><g id="Wht_seal_blck_cloud" data-name="Wht seal blck cloud"><path id="cloud" d="M251.11,179.75c0,21.94-18.74,37.45-40.58,39.72-15.83,1.65-42.77,1.65-74.38,1.65-26.27,0-51.66,0-67.54-1.65-35-3.63-63.72-28.49-63.72-63.65A63.69,63.69,0,0,1,68.61,92.15c.91,0,1.82,0,2.72.07a63.73,63.73,0,0,1,125.12-9.53c.5,0,1,0,1.52,0A39.71,39.71,0,0,1,230.63,145,39.71,39.71,0,0,1,251.11,179.75Z"/><path id="seal" class="cls-1" d="M124.33,86c9.64-13.3,23.16-18.3,38.13-6.51,7.18,5.65,12.13,1.92,11.24,11.49-.43,4.67-4.85,7.5-10.49,8.07-6.63.68-6.88,12.18.47,31.8a48.55,48.55,0,0,1,3.51,17.7c0,4.41-.08,7.7.29,11.43,1.18,11.88,14.71,25.54,15.39,27.64,1.25,3.92-14.38,2.54-25.69-2.2-10.15,5.09-14.37,7.75-27.89,8.84-11.56,14.29-36.23,18-30.81,11.71,11.79-13.72,9-14.11,1.72-16.66-46.31-16.12-19-51.62-50.34-59.75-8.78-2.28,17-1.71,22.8-2.61s19.16-14.36,13.86-6.69c-10.25,14.81,8,48.72,24,9.18C114.92,118.39,117.56,94.52,124.33,86Z"/></g></g></svg>